<mxfile host="app.diagrams.net" modified="2023-10-11T11:53:04.552Z" agent="Mozilla/5.0 (Windows NT 10.0; Win64; x64) AppleWebKit/537.36 (KHTML, like Gecko) Chrome/117.0.0.0 Safari/537.36" etag="oUS3cU_vpDN-Ml-EMq9R" version="22.0.4" type="device">
  <diagram name="Страница — 1" id="5VBkMsGPJQ_v8e2kNSVR">
    <mxGraphModel dx="1500" dy="774" grid="1" gridSize="10" guides="1" tooltips="1" connect="1" arrows="1" fold="1" page="1" pageScale="1" pageWidth="1169" pageHeight="827" math="0" shadow="0">
      <root>
        <mxCell id="0" />
        <mxCell id="1" parent="0" />
        <mxCell id="2UvRARKPYpcAx_hyR-RR-8" value="Move" style="html=1;whiteSpace=wrap;" parent="1" vertex="1">
          <mxGeometry x="545" y="450" width="80" height="30" as="geometry" />
        </mxCell>
        <mxCell id="2UvRARKPYpcAx_hyR-RR-51" value="" style="edgeStyle=elbowEdgeStyle;elbow=vertical;endArrow=classic;html=1;curved=0;rounded=0;endSize=8;startSize=8;exitX=0.5;exitY=0;exitDx=0;exitDy=0;entryX=0.5;entryY=1;entryDx=0;entryDy=0;" parent="1" source="2UvRARKPYpcAx_hyR-RR-13" target="2UvRARKPYpcAx_hyR-RR-8" edge="1">
          <mxGeometry width="50" height="50" relative="1" as="geometry">
            <mxPoint x="340" y="480" as="sourcePoint" />
            <mxPoint x="390" y="430" as="targetPoint" />
          </mxGeometry>
        </mxCell>
        <mxCell id="2UvRARKPYpcAx_hyR-RR-52" value="" style="edgeStyle=elbowEdgeStyle;elbow=vertical;endArrow=classic;html=1;curved=0;rounded=0;endSize=8;startSize=8;exitX=0.5;exitY=0;exitDx=0;exitDy=0;entryX=0.5;entryY=1;entryDx=0;entryDy=0;" parent="1" source="2UvRARKPYpcAx_hyR-RR-11" target="2UvRARKPYpcAx_hyR-RR-8" edge="1">
          <mxGeometry width="50" height="50" relative="1" as="geometry">
            <mxPoint x="730" y="430" as="sourcePoint" />
            <mxPoint x="780" y="380" as="targetPoint" />
          </mxGeometry>
        </mxCell>
        <mxCell id="2UvRARKPYpcAx_hyR-RR-64" value="Pokemon" style="html=1;whiteSpace=wrap;" parent="1" vertex="1">
          <mxGeometry x="50" y="214" width="80" height="30" as="geometry" />
        </mxCell>
        <mxCell id="2UvRARKPYpcAx_hyR-RR-65" value="Numel" style="html=1;whiteSpace=wrap;" parent="1" vertex="1">
          <mxGeometry x="190" y="214" width="80" height="30" as="geometry" />
        </mxCell>
        <mxCell id="2UvRARKPYpcAx_hyR-RR-66" value="Honedge" style="html=1;whiteSpace=wrap;" parent="1" vertex="1">
          <mxGeometry x="190" y="134" width="80" height="30" as="geometry" />
        </mxCell>
        <mxCell id="2UvRARKPYpcAx_hyR-RR-67" value="Castform" style="html=1;whiteSpace=wrap;" parent="1" vertex="1">
          <mxGeometry x="190" y="294" width="80" height="30" as="geometry" />
        </mxCell>
        <mxCell id="2UvRARKPYpcAx_hyR-RR-68" value="Doublade" style="html=1;whiteSpace=wrap;" parent="1" vertex="1">
          <mxGeometry x="320" y="134" width="80" height="30" as="geometry" />
        </mxCell>
        <mxCell id="2UvRARKPYpcAx_hyR-RR-69" value="Aegislash_Blade" style="html=1;whiteSpace=wrap;" parent="1" vertex="1">
          <mxGeometry x="450" y="134" width="100" height="30" as="geometry" />
        </mxCell>
        <mxCell id="2UvRARKPYpcAx_hyR-RR-71" value="Camerupt" style="html=1;whiteSpace=wrap;" parent="1" vertex="1">
          <mxGeometry x="320" y="214" width="80" height="30" as="geometry" />
        </mxCell>
        <mxCell id="2UvRARKPYpcAx_hyR-RR-73" value="" style="edgeStyle=elbowEdgeStyle;elbow=horizontal;endArrow=classic;html=1;curved=0;rounded=0;endSize=8;startSize=8;exitX=0;exitY=0.5;exitDx=0;exitDy=0;" parent="1" source="2UvRARKPYpcAx_hyR-RR-65" target="2UvRARKPYpcAx_hyR-RR-64" edge="1">
          <mxGeometry width="50" height="50" relative="1" as="geometry">
            <mxPoint x="330" y="224" as="sourcePoint" />
            <mxPoint x="380" y="174" as="targetPoint" />
          </mxGeometry>
        </mxCell>
        <mxCell id="2UvRARKPYpcAx_hyR-RR-74" value="" style="edgeStyle=elbowEdgeStyle;elbow=horizontal;endArrow=classic;html=1;curved=0;rounded=0;endSize=8;startSize=8;exitX=0;exitY=0.5;exitDx=0;exitDy=0;entryX=1;entryY=0.5;entryDx=0;entryDy=0;" parent="1" source="2UvRARKPYpcAx_hyR-RR-66" target="2UvRARKPYpcAx_hyR-RR-64" edge="1">
          <mxGeometry width="50" height="50" relative="1" as="geometry">
            <mxPoint x="90" y="174" as="sourcePoint" />
            <mxPoint x="140" y="124" as="targetPoint" />
          </mxGeometry>
        </mxCell>
        <mxCell id="2UvRARKPYpcAx_hyR-RR-75" value="" style="edgeStyle=elbowEdgeStyle;elbow=horizontal;endArrow=classic;html=1;curved=0;rounded=0;endSize=8;startSize=8;entryX=1;entryY=0.5;entryDx=0;entryDy=0;exitX=0;exitY=0.5;exitDx=0;exitDy=0;" parent="1" source="2UvRARKPYpcAx_hyR-RR-67" target="2UvRARKPYpcAx_hyR-RR-64" edge="1">
          <mxGeometry width="50" height="50" relative="1" as="geometry">
            <mxPoint x="130" y="334" as="sourcePoint" />
            <mxPoint x="180" y="284" as="targetPoint" />
          </mxGeometry>
        </mxCell>
        <mxCell id="2UvRARKPYpcAx_hyR-RR-76" value="" style="edgeStyle=elbowEdgeStyle;elbow=horizontal;endArrow=classic;html=1;curved=0;rounded=0;endSize=8;startSize=8;exitX=0;exitY=0.5;exitDx=0;exitDy=0;entryX=1;entryY=0.5;entryDx=0;entryDy=0;" parent="1" source="2UvRARKPYpcAx_hyR-RR-71" target="2UvRARKPYpcAx_hyR-RR-65" edge="1">
          <mxGeometry width="50" height="50" relative="1" as="geometry">
            <mxPoint x="350" y="334" as="sourcePoint" />
            <mxPoint x="400" y="284" as="targetPoint" />
          </mxGeometry>
        </mxCell>
        <mxCell id="2UvRARKPYpcAx_hyR-RR-77" value="" style="edgeStyle=elbowEdgeStyle;elbow=horizontal;endArrow=classic;html=1;curved=0;rounded=0;endSize=8;startSize=8;exitX=0;exitY=0.5;exitDx=0;exitDy=0;entryX=1;entryY=0.5;entryDx=0;entryDy=0;" parent="1" source="2UvRARKPYpcAx_hyR-RR-68" target="2UvRARKPYpcAx_hyR-RR-66" edge="1">
          <mxGeometry width="50" height="50" relative="1" as="geometry">
            <mxPoint x="420" y="244" as="sourcePoint" />
            <mxPoint x="470" y="194" as="targetPoint" />
          </mxGeometry>
        </mxCell>
        <mxCell id="2UvRARKPYpcAx_hyR-RR-78" value="" style="edgeStyle=elbowEdgeStyle;elbow=horizontal;endArrow=classic;html=1;curved=0;rounded=0;endSize=8;startSize=8;exitX=0;exitY=0.5;exitDx=0;exitDy=0;entryX=1;entryY=0.5;entryDx=0;entryDy=0;" parent="1" source="2UvRARKPYpcAx_hyR-RR-69" target="2UvRARKPYpcAx_hyR-RR-68" edge="1">
          <mxGeometry width="50" height="50" relative="1" as="geometry">
            <mxPoint x="450" y="234" as="sourcePoint" />
            <mxPoint x="500" y="184" as="targetPoint" />
          </mxGeometry>
        </mxCell>
        <mxCell id="2UvRARKPYpcAx_hyR-RR-82" value="Project: Pokemon_Battles" style="swimlane;whiteSpace=wrap;html=1;" parent="1" vertex="1">
          <mxGeometry x="10" y="44" width="1150" height="746" as="geometry" />
        </mxCell>
        <mxCell id="2UvRARKPYpcAx_hyR-RR-87" value="package: area" style="swimlane;whiteSpace=wrap;html=1;" parent="2UvRARKPYpcAx_hyR-RR-82" vertex="1">
          <mxGeometry x="590" y="56" width="140" height="244" as="geometry" />
        </mxCell>
        <mxCell id="2UvRARKPYpcAx_hyR-RR-86" value="WeatherStatus" style="html=1;whiteSpace=wrap;" parent="2UvRARKPYpcAx_hyR-RR-87" vertex="1">
          <mxGeometry x="25" y="84" width="90" height="36" as="geometry" />
        </mxCell>
        <mxCell id="2UvRARKPYpcAx_hyR-RR-88" value="Main" style="html=1;whiteSpace=wrap;" parent="2UvRARKPYpcAx_hyR-RR-82" vertex="1">
          <mxGeometry x="820" y="136" width="130" height="64" as="geometry" />
        </mxCell>
        <mxCell id="2UvRARKPYpcAx_hyR-RR-27" value="Confide" style="html=1;whiteSpace=wrap;" parent="2UvRARKPYpcAx_hyR-RR-82" vertex="1">
          <mxGeometry x="50" y="556" width="80" height="30" as="geometry" />
        </mxCell>
        <mxCell id="2UvRARKPYpcAx_hyR-RR-30" value="Amnesia" style="html=1;whiteSpace=wrap;" parent="2UvRARKPYpcAx_hyR-RR-82" vertex="1">
          <mxGeometry x="150" y="556" width="80" height="30" as="geometry" />
        </mxCell>
        <mxCell id="2UvRARKPYpcAx_hyR-RR-32" value="Rest" style="html=1;whiteSpace=wrap;" parent="2UvRARKPYpcAx_hyR-RR-82" vertex="1">
          <mxGeometry x="350" y="556" width="80" height="30" as="geometry" />
        </mxCell>
        <mxCell id="2UvRARKPYpcAx_hyR-RR-40" value="" style="edgeStyle=elbowEdgeStyle;elbow=vertical;endArrow=classic;html=1;curved=0;rounded=0;endSize=8;startSize=8;exitX=0.5;exitY=0;exitDx=0;exitDy=0;entryX=0.5;entryY=1;entryDx=0;entryDy=0;" parent="2UvRARKPYpcAx_hyR-RR-82" source="2UvRARKPYpcAx_hyR-RR-27" edge="1" target="2UvRARKPYpcAx_hyR-RR-13">
          <mxGeometry width="50" height="50" relative="1" as="geometry">
            <mxPoint x="130" y="596" as="sourcePoint" />
            <mxPoint x="190" y="496" as="targetPoint" />
          </mxGeometry>
        </mxCell>
        <mxCell id="2UvRARKPYpcAx_hyR-RR-42" value="" style="edgeStyle=elbowEdgeStyle;elbow=vertical;endArrow=classic;html=1;curved=0;rounded=0;endSize=8;startSize=8;exitX=0.5;exitY=0;exitDx=0;exitDy=0;entryX=0.5;entryY=1;entryDx=0;entryDy=0;" parent="2UvRARKPYpcAx_hyR-RR-82" source="2UvRARKPYpcAx_hyR-RR-32" target="2UvRARKPYpcAx_hyR-RR-13" edge="1">
          <mxGeometry width="50" height="50" relative="1" as="geometry">
            <mxPoint x="150" y="616" as="sourcePoint" />
            <mxPoint x="220" y="526" as="targetPoint" />
            <Array as="points" />
          </mxGeometry>
        </mxCell>
        <mxCell id="2UvRARKPYpcAx_hyR-RR-49" value="" style="edgeStyle=elbowEdgeStyle;elbow=vertical;endArrow=classic;html=1;curved=0;rounded=0;endSize=8;startSize=8;exitX=0.5;exitY=0;exitDx=0;exitDy=0;entryX=0.5;entryY=1;entryDx=0;entryDy=0;" parent="2UvRARKPYpcAx_hyR-RR-82" source="2UvRARKPYpcAx_hyR-RR-30" edge="1" target="2UvRARKPYpcAx_hyR-RR-13">
          <mxGeometry width="50" height="50" relative="1" as="geometry">
            <mxPoint x="120" y="636" as="sourcePoint" />
            <mxPoint x="230" y="516" as="targetPoint" />
          </mxGeometry>
        </mxCell>
        <mxCell id="2UvRARKPYpcAx_hyR-RR-80" value="package: pokemons" style="swimlane;whiteSpace=wrap;html=1;" parent="2UvRARKPYpcAx_hyR-RR-82" vertex="1">
          <mxGeometry x="30" y="56" width="520" height="244" as="geometry" />
        </mxCell>
        <mxCell id="2UvRARKPYpcAx_hyR-RR-79" value="package: attacks" style="swimlane;whiteSpace=wrap;html=1;" parent="2UvRARKPYpcAx_hyR-RR-82" vertex="1">
          <mxGeometry x="30" y="356" width="1090" height="364" as="geometry" />
        </mxCell>
        <mxCell id="2UvRARKPYpcAx_hyR-RR-31" value="CosmicPower" style="html=1;whiteSpace=wrap;" parent="2UvRARKPYpcAx_hyR-RR-79" vertex="1">
          <mxGeometry x="220" y="200" width="80" height="30" as="geometry" />
        </mxCell>
        <mxCell id="2UvRARKPYpcAx_hyR-RR-13" value="StatusMove" style="html=1;whiteSpace=wrap;" parent="2UvRARKPYpcAx_hyR-RR-79" vertex="1">
          <mxGeometry x="170" y="110" width="80" height="30" as="geometry" />
        </mxCell>
        <mxCell id="2UvRARKPYpcAx_hyR-RR-41" value="" style="edgeStyle=elbowEdgeStyle;elbow=vertical;endArrow=classic;html=1;curved=0;rounded=0;endSize=8;startSize=8;exitX=0.5;exitY=0;exitDx=0;exitDy=0;entryX=0.5;entryY=1;entryDx=0;entryDy=0;" parent="2UvRARKPYpcAx_hyR-RR-79" source="2UvRARKPYpcAx_hyR-RR-31" target="2UvRARKPYpcAx_hyR-RR-13" edge="1">
          <mxGeometry width="50" height="50" relative="1" as="geometry">
            <mxPoint x="110" y="250" as="sourcePoint" />
            <mxPoint x="180" y="160" as="targetPoint" />
            <Array as="points" />
          </mxGeometry>
        </mxCell>
        <mxCell id="2UvRARKPYpcAx_hyR-RR-16" value="PhysicalMove" style="html=1;whiteSpace=wrap;" parent="2UvRARKPYpcAx_hyR-RR-79" vertex="1">
          <mxGeometry x="620" y="170" width="80" height="30" as="geometry" />
        </mxCell>
        <mxCell id="2UvRARKPYpcAx_hyR-RR-53" value="Facade" style="html=1;whiteSpace=wrap;" parent="2UvRARKPYpcAx_hyR-RR-79" vertex="1">
          <mxGeometry x="690" y="230" width="80" height="30" as="geometry" />
        </mxCell>
        <mxCell id="2UvRARKPYpcAx_hyR-RR-58" value="Tackle" style="html=1;whiteSpace=wrap;" parent="2UvRARKPYpcAx_hyR-RR-79" vertex="1">
          <mxGeometry x="690" y="300" width="80" height="30" as="geometry" />
        </mxCell>
        <mxCell id="2UvRARKPYpcAx_hyR-RR-59" value="" style="edgeStyle=elbowEdgeStyle;elbow=vertical;endArrow=classic;html=1;curved=0;rounded=0;endSize=8;startSize=8;exitX=0.5;exitY=0;exitDx=0;exitDy=0;entryX=0.5;entryY=1;entryDx=0;entryDy=0;" parent="2UvRARKPYpcAx_hyR-RR-79" source="2UvRARKPYpcAx_hyR-RR-54" target="2UvRARKPYpcAx_hyR-RR-16" edge="1">
          <mxGeometry width="50" height="50" relative="1" as="geometry">
            <mxPoint x="530" y="220" as="sourcePoint" />
            <mxPoint x="580" y="170" as="targetPoint" />
          </mxGeometry>
        </mxCell>
        <mxCell id="2UvRARKPYpcAx_hyR-RR-60" value="" style="edgeStyle=elbowEdgeStyle;elbow=vertical;endArrow=classic;html=1;curved=0;rounded=0;endSize=8;startSize=8;entryX=0.5;entryY=1;entryDx=0;entryDy=0;" parent="2UvRARKPYpcAx_hyR-RR-79" source="2UvRARKPYpcAx_hyR-RR-53" target="2UvRARKPYpcAx_hyR-RR-16" edge="1">
          <mxGeometry width="50" height="50" relative="1" as="geometry">
            <mxPoint x="740" y="220" as="sourcePoint" />
            <mxPoint x="790" y="170" as="targetPoint" />
          </mxGeometry>
        </mxCell>
        <mxCell id="2UvRARKPYpcAx_hyR-RR-61" value="" style="edgeStyle=elbowEdgeStyle;elbow=vertical;endArrow=classic;html=1;curved=0;rounded=0;endSize=8;startSize=8;entryX=0.5;entryY=1;entryDx=0;entryDy=0;exitX=0.5;exitY=0;exitDx=0;exitDy=0;" parent="2UvRARKPYpcAx_hyR-RR-79" source="2UvRARKPYpcAx_hyR-RR-56" target="2UvRARKPYpcAx_hyR-RR-16" edge="1">
          <mxGeometry width="50" height="50" relative="1" as="geometry">
            <mxPoint x="470" y="259.28932188134524" as="sourcePoint" />
            <mxPoint x="470" y="209.28932188134524" as="targetPoint" />
            <Array as="points">
              <mxPoint x="560" y="280" />
            </Array>
          </mxGeometry>
        </mxCell>
        <mxCell id="2UvRARKPYpcAx_hyR-RR-62" value="" style="edgeStyle=elbowEdgeStyle;elbow=vertical;endArrow=classic;html=1;curved=0;rounded=0;endSize=8;startSize=8;exitX=0.5;exitY=0;exitDx=0;exitDy=0;" parent="2UvRARKPYpcAx_hyR-RR-79" source="2UvRARKPYpcAx_hyR-RR-58" target="2UvRARKPYpcAx_hyR-RR-16" edge="1">
          <mxGeometry width="50" height="50" relative="1" as="geometry">
            <mxPoint x="790" y="280" as="sourcePoint" />
            <mxPoint x="840" y="230" as="targetPoint" />
            <Array as="points">
              <mxPoint x="740" y="280" />
            </Array>
          </mxGeometry>
        </mxCell>
        <mxCell id="2UvRARKPYpcAx_hyR-RR-56" value="IronHead" style="html=1;whiteSpace=wrap;" parent="2UvRARKPYpcAx_hyR-RR-79" vertex="1">
          <mxGeometry x="550" y="300" width="80" height="30" as="geometry" />
        </mxCell>
        <mxCell id="2UvRARKPYpcAx_hyR-RR-54" value="StoneEdge" style="html=1;whiteSpace=wrap;" parent="2UvRARKPYpcAx_hyR-RR-79" vertex="1">
          <mxGeometry x="550" y="230" width="80" height="30" as="geometry" />
        </mxCell>
        <mxCell id="2UvRARKPYpcAx_hyR-RR-11" value="DamageMove" style="html=1;whiteSpace=wrap;" parent="2UvRARKPYpcAx_hyR-RR-79" vertex="1">
          <mxGeometry x="770" y="110" width="80" height="30" as="geometry" />
        </mxCell>
        <mxCell id="2UvRARKPYpcAx_hyR-RR-35" value="" style="edgeStyle=elbowEdgeStyle;elbow=vertical;endArrow=classic;html=1;curved=0;rounded=0;endSize=8;startSize=8;entryX=0.5;entryY=1;entryDx=0;entryDy=0;exitX=0.5;exitY=0;exitDx=0;exitDy=0;" parent="2UvRARKPYpcAx_hyR-RR-79" source="2UvRARKPYpcAx_hyR-RR-16" target="2UvRARKPYpcAx_hyR-RR-11" edge="1">
          <mxGeometry width="50" height="50" relative="1" as="geometry">
            <mxPoint x="820" y="170" as="sourcePoint" />
            <mxPoint x="1160" y="40" as="targetPoint" />
          </mxGeometry>
        </mxCell>
        <mxCell id="2UvRARKPYpcAx_hyR-RR-17" value="SpecialMove" style="html=1;whiteSpace=wrap;" parent="2UvRARKPYpcAx_hyR-RR-79" vertex="1">
          <mxGeometry x="910" y="170" width="80" height="30" as="geometry" />
        </mxCell>
        <mxCell id="2UvRARKPYpcAx_hyR-RR-36" value="" style="edgeStyle=elbowEdgeStyle;elbow=vertical;endArrow=classic;html=1;curved=0;rounded=0;endSize=8;startSize=8;exitX=0.5;exitY=0;exitDx=0;exitDy=0;entryX=0.5;entryY=1;entryDx=0;entryDy=0;" parent="2UvRARKPYpcAx_hyR-RR-79" source="2UvRARKPYpcAx_hyR-RR-17" target="2UvRARKPYpcAx_hyR-RR-11" edge="1">
          <mxGeometry width="50" height="50" relative="1" as="geometry">
            <mxPoint x="1110" y="90" as="sourcePoint" />
            <mxPoint x="1160" y="40" as="targetPoint" />
          </mxGeometry>
        </mxCell>
        <mxCell id="2UvRARKPYpcAx_hyR-RR-45" value="Flamethrower" style="html=1;whiteSpace=wrap;" parent="2UvRARKPYpcAx_hyR-RR-79" vertex="1">
          <mxGeometry x="980" y="230" width="80" height="30" as="geometry" />
        </mxCell>
        <mxCell id="2UvRARKPYpcAx_hyR-RR-50" value="" style="edgeStyle=elbowEdgeStyle;elbow=vertical;endArrow=classic;html=1;curved=0;rounded=0;endSize=8;startSize=8;exitX=0.5;exitY=0;exitDx=0;exitDy=0;entryX=0.5;entryY=1;entryDx=0;entryDy=0;" parent="2UvRARKPYpcAx_hyR-RR-79" source="2UvRARKPYpcAx_hyR-RR-45" target="2UvRARKPYpcAx_hyR-RR-17" edge="1">
          <mxGeometry width="50" height="50" relative="1" as="geometry">
            <mxPoint x="1070" y="220" as="sourcePoint" />
            <mxPoint x="1120" y="170" as="targetPoint" />
          </mxGeometry>
        </mxCell>
        <mxCell id="PSuLA41knzTdCBgGfqvX-4" value="Thunder" style="html=1;whiteSpace=wrap;" vertex="1" parent="2UvRARKPYpcAx_hyR-RR-79">
          <mxGeometry x="840" y="230" width="80" height="30" as="geometry" />
        </mxCell>
        <mxCell id="PSuLA41knzTdCBgGfqvX-5" value="FlashCannon" style="html=1;whiteSpace=wrap;" vertex="1" parent="2UvRARKPYpcAx_hyR-RR-79">
          <mxGeometry x="910" y="300" width="80" height="30" as="geometry" />
        </mxCell>
        <mxCell id="PSuLA41knzTdCBgGfqvX-8" value="" style="edgeStyle=elbowEdgeStyle;elbow=vertical;endArrow=classic;html=1;curved=0;rounded=0;endSize=8;startSize=8;entryX=0.5;entryY=1;entryDx=0;entryDy=0;exitX=0.5;exitY=0;exitDx=0;exitDy=0;" edge="1" parent="2UvRARKPYpcAx_hyR-RR-79" source="PSuLA41knzTdCBgGfqvX-4" target="2UvRARKPYpcAx_hyR-RR-17">
          <mxGeometry width="50" height="50" relative="1" as="geometry">
            <mxPoint x="900" y="250" as="sourcePoint" />
            <mxPoint x="950" y="200" as="targetPoint" />
          </mxGeometry>
        </mxCell>
        <mxCell id="PSuLA41knzTdCBgGfqvX-9" value="" style="edgeStyle=elbowEdgeStyle;elbow=vertical;endArrow=classic;html=1;curved=0;rounded=0;endSize=8;startSize=8;entryX=0.5;entryY=1;entryDx=0;entryDy=0;exitX=0.5;exitY=0;exitDx=0;exitDy=0;" edge="1" parent="2UvRARKPYpcAx_hyR-RR-79" source="PSuLA41knzTdCBgGfqvX-5" target="2UvRARKPYpcAx_hyR-RR-17">
          <mxGeometry width="50" height="50" relative="1" as="geometry">
            <mxPoint x="930" y="-50" as="sourcePoint" />
            <mxPoint x="980" y="-100" as="targetPoint" />
            <Array as="points">
              <mxPoint x="930" y="280" />
            </Array>
          </mxGeometry>
        </mxCell>
        <mxCell id="PSuLA41knzTdCBgGfqvX-2" style="edgeStyle=orthogonalEdgeStyle;rounded=0;orthogonalLoop=1;jettySize=auto;html=1;exitX=0.25;exitY=0;exitDx=0;exitDy=0;entryX=0.375;entryY=0.2;entryDx=0;entryDy=0;entryPerimeter=0;" edge="1" parent="1" source="2UvRARKPYpcAx_hyR-RR-71" target="2UvRARKPYpcAx_hyR-RR-71">
          <mxGeometry relative="1" as="geometry" />
        </mxCell>
      </root>
    </mxGraphModel>
  </diagram>
</mxfile>
